<?xml version="1.0" encoding="UTF-8" standalone="no"?>
<svg
   version="1.1"
   width="2000px"
   height="1998px"
   style="shape-rendering:geometricPrecision; text-rendering:geometricPrecision; image-rendering:optimizeQuality; fill-rule:evenodd; clip-rule:evenodd"
   id="svg3"
   sodipodi:docname="htcp.svg"
   inkscape:export-filename="htcp.png"
   inkscape:export-xdpi="96.0961"
   inkscape:export-ydpi="96.0961"
   inkscape:version="1.4 (86a8ad7, 2024-10-11)"
   xmlns:inkscape="http://www.inkscape.org/namespaces/inkscape"
   xmlns:sodipodi="http://sodipodi.sourceforge.net/DTD/sodipodi-0.dtd"
   xmlns="http://www.w3.org/2000/svg"
   xmlns:svg="http://www.w3.org/2000/svg">
  <defs
     id="defs3">
    <inkscape:path-effect
       effect="powerstroke"
       id="path-effect6"
       is_visible="true"
       lpeversion="1.3"
       scale_width="4.5"
       interpolator_type="CubicBezierJohan"
       interpolator_beta="0"
       start_linecap_type="peak"
       end_linecap_type="peak"
       offset_points="20.263469,24.293537 | 46.700944,2.7228369"
       linejoin_type="miter"
       miter_limit="4"
       not_jump="false"
       sort_points="true"
       message="" />
    <inkscape:path-effect
       effect="taper_stroke"
       start_shape="center"
       end_shape="center"
       id="path-effect3"
       is_visible="true"
       lpeversion="1"
       stroke_width="28.4"
       subpath="1"
       attach_start="4"
       end_offset="2.2"
       start_smoothing="-1.5"
       end_smoothing="0.5"
       jointype="extrapolated"
       miter_limit="100" />
    <inkscape:path-effect
       effect="fill_between_many"
       method="bsplinespiro"
       autoreverse="false"
       close="false"
       join="false"
       linkedpaths="#path1,0,1"
       id="path-effect4" />
  </defs>
  <sodipodi:namedview
     id="namedview3"
     pagecolor="#ffffff"
     bordercolor="#000000"
     borderopacity="0.25"
     inkscape:showpageshadow="2"
     inkscape:pageopacity="0.0"
     inkscape:pagecheckerboard="0"
     inkscape:deskcolor="#d1d1d1"
     inkscape:zoom="0.41091091"
     inkscape:cx="1271.5652"
     inkscape:cy="826.21317"
     inkscape:window-width="1920"
     inkscape:window-height="1017"
     inkscape:window-x="-8"
     inkscape:window-y="-8"
     inkscape:window-maximized="1"
     inkscape:current-layer="g1" />
  <g
     id="g1"
     style="fill:#000000">
    <path
       style="opacity:0.963;fill:#ffffff;fill-opacity:1;fill-rule:nonzero;stroke:#ffffff;stroke-width:10;stroke-linecap:butt;stroke-dasharray:none;stroke-dashoffset:0;stroke-opacity:1"
       fill="#fefffe"
       d="m 937.5,37.483169 c 0,0 45.76816,1.289018 125,3.52051 l -0.8849,-0.0094 c 33.3641,1.706801 72.7176,6.386359 116.5439,17.050315 l -0.052,-0.01274 0.6632,0.137863 c 106.8399,22.211265 216.3684,62.530566 324.2108,129.501986 16.2747,12.01801 33.1942,25.02582 50.5831,39.07073 l 33.6021,27.1402 34.0392,-32.96046 c 30.4038,-29.4402 62.4918,-59.29953 96.332,-89.38869 l -1.6195,1.46107 c 0.7958,0.0755 1.1862,0.57017 1.3998,1.12834 0.217,0.56692 0.2644,1.12003 0.6518,1.65315 l -2.152,0.42281 c -3.6363,1.2573 -8.521,1.96365 -14.1236,1.35004 -5.525,-0.60511 -10.2841,-2.32169 -14.0773,-4.22188 l -0.8026,-0.40203 -0.4042,-0.46315 c 3.5003,4.0101 6.7415,8.23847 9.744,12.69574 l -0.7265,-0.69461 c 53.9753,53.98583 107.3546,109.24343 160.0699,165.80018 0.051,1.85033 -0.1143,3.58445 -0.4333,5.22915 l -5.7182,-11.07506 c -2.2845,-3.93145 -4.2149,-9.399 -4.8263,-15.93745 -0.6134,-6.55935 0.2525,-12.41373 1.5027,-17.07138 l 1.0241,-3.81511 1.3306,-1.37205 c -2.6393,2.72164 -5.5222,4.51486 -8.5785,6.02349 l 0.08,-0.0393 -0.9344,0.92185 c -27.7715,27.399 -55.8747,53.81009 -84.2489,79.27136 l -53.4612,47.97275 43.0716,61.24379 c 53.2068,75.65517 93.1266,154.50284 120.7494,236.42406 27.7643,82.34104 43.324,168.43657 47.1402,258.35558 -1.1877,30.02459 -2.3515,59.44783 -3.4851,88.10523 l 0.1463,-5.152 c -5.834,92.1471 -23.6109,177.8734 -51.9725,257.8614 -29.3086,82.6588 -70.1536,159.8444 -121.5777,232.1094 l -43.8943,61.6834 53.226,57.9901 c 31.3019,34.1036 61.5408,66.6993 90.532,97.6789 -4.2062,-3.0643 -7.7137,-7.0269 -10.4486,-10.9736 l -0.336,-0.485 -4.6494,-16.2491 c -2.3596,-8.2465 -3.2054,-18.2316 -1.5719,-28.9188 1.8211,-11.914 6.2091,-21.5235 10.4025,-28.3664 l 1.5432,-2.5184 0.8894,-0.7615 c -5.703,4.8834 -10.6786,8.4478 -13.6097,10.4734 l 1.9658,-2.0175 c -25.3826,24.5287 -38.9906,37.6789 -38.9906,37.6789 0,0 -37.5834,38.949 -105.2531,109.0774 l 2.1484,-2.0887 c -4.4933,5.5931 -10.442,12.5651 -17.8451,20.1281 l 16.617,-10.5103 c 6.9238,-2.8408 15.9077,-5.2871 26.3095,-5.4876 9.5279,-0.1836 18.1793,1.5736 25.2184,4.4226 l 12.3395,4.9945 0.3302,-0.1466 c -1.2989,0.5769 -2.9105,1.2938 -4.2874,1.8653 l 8.4604,5.9106 c -5.2171,-2.5977 -10.6312,-5.5224 -16.1895,-8.8365 l 3.4947,3.3364 c -27.3954,-25.887 -55.8401,-52.4513 -85.3738,-79.6767 l -54.814,-50.53 -57.8786,41.3774 c -75.3194,53.8458 -155.4826,95.7896 -240.9709,125.1433 -83.3802,28.6298 -172.5301,45.5251 -268.0951,49.4512 l 2.9257,-0.051 c -20.7457,1.1902 -41.93381,2.4057 -63.49206,3.6425 -80.28698,-2.8811 -158.0448,-15.2514 -233.31277,-37.4855 -75.01191,-22.1584 -147.97996,-54.2402 -218.84035,-96.9342 l 3.48421,2.2659 c -20.01257,-12.3249 -40.61948,-24.0682 -61.84222,-35.2014 l -56.37556,-29.5738 -28.80627,36.8467 c -3.72535,4.7652 -7.42929,9.5343 -11.12028,14.296 l 5.31282,-6.854 -10.58599,11.8364 c -25.25689,28.2404 -51.84644,55.3235 -79.82155,81.2213 l 0.89464,-0.7623 c 1.96367,-0.7757 4.57067,-1.8328 7.95044,-2.3014 3.29007,-0.4561 6.10651,-0.1406 7.73252,0.5714 l 11.06651,4.846 0.18559,-3.4254 c -0.0671,1.2379 -0.15923,2.5319 -0.74785,3.6049 l 1.05888,-1.9303 12.62846,11.554 C 249.84201,1811.4651 188.55612,1752.2277 128.99009,1691.4292 l 4.48577,5.3524 c 0.0819,1.1463 0.73593,3.6822 0.65055,6.1487 -0.0897,2.5899 -0.86585,4.539 -1.58708,4.6892 l 0.21687,-1.1509 c -1.7676,2.3188 -3.87387,4.5381 -6.2615,5.488 l 0.15956,-0.063 -3.08733,3.6477 c 25.88015,-30.5775 52.61614,-59.983 80.13957,-88.2495 l 1.73046,-1.7772 -0.0258,0.037 c 4.93504,-7.1522 9.15358,-14.4751 12.71133,-21.9236 l 12.4999,-26.1698 -11.27248,-17.1455 c -14.84062,-22.5725 -30.03622,-44.23 -45.49266,-65.0167 C 87.813702,1351.7136 42.490348,1199.4241 32.635682,1039.7021 l 0.04874,1.7979 C 31.426368,1011.3474 30.205383,982.08324 29.027178,953.84441 36.732201,787.47709 82.521067,638.80257 157.43771,505.31861 l -0.50483,0.8458 c 1.39837,-2.45361 44.99156,-78.99787 46.38992,-81.45148 l 8.69002,-15.26815 -10.15196,-10.23213 c -8.56562,-8.63326 -16.85115,-16.10075 -24.49187,-22.49722 l 0.88389,0.73996 -1.425,-1.28282 C 144.58483,347.14658 118.3087,320.86419 98.269358,299.8462 c -1.257662,-1.85548 -2.15723,-3.51398 -2.813331,-4.96058 -1.155256,-2.54716 -1.677066,-4.70922 -1.920423,-6.43438 -0.482652,-3.42151 -0.05417,-5.48774 -0.05417,-5.48774 0,0 0.186516,-0.4596 0.614605,-1.32227 0.620994,-1.25141 1.953595,-3.74013 4.564154,-6.9396 l -1.657861,2.16731 C 139.47805,233.19372 202.01277,170.87069 281.11773,99.415248 c 1.97515,-0.76225 3.69534,-1.126076 5.15834,-1.198124 1.56262,-0.07695 2.77334,0.172972 3.82143,0.584568 0.97315,0.382164 1.94837,0.96834 2.98079,1.711278 1.01755,0.73224 2.30769,1.7775 3.78598,3.2014 l -1.57729,-1.10501 c 17.34095,14.2625 33.38449,30.56555 49.57237,48.10106 16.24936,17.60211 32.35613,36.13109 49.30606,53.93621 l 16.01498,16.823 20.09829,-13.85465 C 574.82581,107.9722 723.9819,57.846732 868.07448,37.946242 910.48656,36.448108 939.2906,37.44094 939.2906,37.44094 Z m -1.7906,-75.924109 c 0,0 -30.53601,3.054779 -74.6117,10.488605 l 3.78724,-0.638757 -5.20737,0.816466 C 712.71592,-4.7324693 561.81665,48.234369 416.60131,148.11049 405.2431,137.19654 393.65308,125.7778 381.61983,114.37419 363.6019,97.299056 344.62215,80.346301 323.71302,65.390644 l -1.44221,-1.03157 -0.13508,-0.07345 c -4.98727,-2.711683 -10.1879,-4.785709 -15.56777,-6.07861 -5.5115,-1.324534 -11.02894,-1.784615 -16.47046,-1.382057 -5.60052,0.414322 -10.85719,1.722143 -15.72732,3.677906 -5.05639,2.03056 -9.62825,4.7308 -13.74393,7.780819 l -2.44993,1.815579 -0.36469,0.354566 C 179.78852,146.3111 118.42232,212.2204 76.997671,258.13105 l -1.264643,1.4016 -0.393234,0.76573 c -3.201203,6.23361 -4.516507,11.23501 -5.118261,13.98726 -0.397821,1.81953 -0.527741,2.78981 -0.527741,2.78981 0,0 -1.65588,3.74304 -2.139296,11.37579 -0.247275,3.90427 -0.07513,8.8431 1.307052,14.59002 1.046284,4.35029 2.773725,9.10811 5.49192,14.19736 l 0.34726,0.65017 1.230306,1.47523 c 18.996989,22.77893 44.118526,51.4933 75.241086,83.46341 l -0.54111,-0.54286 c 2.41592,3.2457 4.88039,6.68584 7.36647,10.32223 -14.92818,22.0046 -46.1954,68.09448 -44.93036,66.22879 l -0.0933,0.13739 -0.41157,0.70841 C 31.638142,618.972 -19.376294,775.63431 -29.971712,951.94304 l 0.07806,-1.29888 -0.119155,2.85587 c -1.182645,28.34527 -2.408443,57.72477 -3.67161,87.99997 l -0.01698,0.407 0.06571,1.3906 c 8.06569,170.7095 54.278373,335.2181 144.910884,490.9615 l -1.15164,-1.979 2.32755,3.8386 c 12.79698,21.1049 25.2229,42.9499 37.19895,65.5688 l 1.22742,-43.3153 c -3.21647,2.6239 -6.64128,4.9659 -10.28867,7.0764 l 1.7047,-1.7399 c -30.6583,27.9299 -60.640351,57.1639 -89.860426,87.7505 l 5.876662,-6.1515 -8.804432,9.7357 c -8.462253,9.3573 -14.714218,20.6702 -18.261506,33.488 l 0.216871,-1.1508 c -3.031905,12.0025 -3.916766,24.965 -1.62515,38.3615 2.28475,13.3563 7.466757,25.6099 14.688535,36.4762 l 1.193345,1.7956 3.292519,3.5569 c 59.181582,63.9355 120.212482,126.3756 183.120912,187.2994 l 1.40138,1.3572 12.28596,8.2665 c 8.39886,5.651 17.51812,10.2038 27.25215,13.6049 l 1.78804,0.6247 9.46406,0.7959 c 12.58211,1.0581 25.61358,-0.036 38.59702,-3.8561 13.01428,-3.8289 24.75888,-10.0368 35.08594,-17.8739 l -0.52053,0.395 1.41552,-1.1576 c 31.02364,-25.3718 60.81246,-52.0653 89.38757,-80.0615 5.2338,-2.8789 10.32794,-5.6773 15.39708,-8.4385 l -85.18183,7.2729 c 17.04916,11.5376 33.42275,23.4826 49.15778,35.7986 l 0.62119,0.4862 2.86301,1.7797 c 81.12454,50.428 165.72004,89.2043 253.56815,116.5333 89.1642,27.7383 181.12336,43.5107 275.50362,47.9512 l 11.79501,0.555 -8.51183,-0.4883 c 21.73336,1.2468 43.09128,2.4721 63.99988,3.6716 l 0.3976,0.023 2.5281,-0.073 c 111.3914,-3.2351 217.146,-21.6959 317.2549,-54.6663 78.3807,-25.8143 152.7834,-60.3528 223.3099,-102.9251 10.2587,10.9016 20.3589,21.6875 30.3026,32.3564 l 9.4067,10.0927 -5.9118,-6.7561 c 7.2681,8.3061 14.5651,16.0098 21.8105,23.1635 l -6.9099,-6.8224 15.3703,12.733 c 7.363,6.0996 14.6944,11.3509 21.7126,15.8653 l 1.4361,0.9238 11.2336,3.9241 c 15.7252,5.4929 32.5093,8.0793 49.7135,7.2451 18.8327,-0.9132 35.633,-5.7914 49.8143,-12.3101 l 2.1007,-0.9657 14.5164,-9.5446 c 15.4979,-10.19 28.2901,-19.8977 38.1549,-27.8719 l -0.1007,0.082 2.2491,-2.1702 c 70.1284,-67.6697 109.0774,-105.2531 109.0774,-105.2531 0,0 13.1502,-13.608 37.6789,-38.9906 l 2.038,-2.109 -0.072,0.091 c 5.0753,-6.4228 13.3505,-17.2995 22.3903,-31.5266 l -6.1808,9.7274 8.6134,-13.0073 c 8.9726,-13.5497 16.9998,-30.7168 20.615,-51.1964 3.228,-18.2862 2.4632,-36.607 -1.7844,-54.0888 l -3.1128,-12.8115 -1.8726,-3.9226 c -6.8356,-14.3185 -16.2377,-28.44 -28.7785,-41.2111 l -11.4284,-11.6381 6.6279,6.3963 c -15.1115,-14.5835 -30.5605,-29.559 -46.3222,-44.9134 39.9495,-66.8827 72.9935,-137.5222 98.3811,-212.0555 33.028,-96.9638 52.8115,-199.6789 58.3849,-308.227 l 0.1979,-3.853 -0.051,-1.3006 c -1.1448,-28.942 -2.3206,-58.66517 -3.5205,-89 l -0.3831,-9.68448 0.2918,5.69243 c -5.4711,-106.75465 -25.1284,-210.02565 -59.9406,-309.20064 -26.8038,-76.36054 -62.4101,-149.77434 -106.9197,-220.08975 11.8215,-12.60846 23.5691,-25.38929 35.2381,-38.3448 l -0.8547,0.88254 c 13.1017,-14.99844 23.6414,-31.73926 31.4215,-49.97651 l 3.1099,-7.28995 -0.7552,2.10279 c 4.5505,-12.66926 7.0365,-26.54638 6.4377,-41.11188 -0.5979,-14.54723 -4.1995,-27.97963 -9.7613,-39.89695 l -4.5177,-9.67991 -1.2005,-1.39515 c -5.1865,-6.02718 -10.6834,-11.56168 -16.4288,-16.62303 l 2.586,2.27811 -5.8132,-5.88592 C 1902.6488,159.93669 1845.3869,104.03449 1787.5731,49.537084 l -0.7775,-0.732857 0.051,0.03819 c -8.5602,-6.427782 -17.3282,-12.181535 -26.2559,-17.30422 l 2.5075,1.438759 -3.7143,-2.30393 c -9.2997,-5.768623 -19.8157,-10.01821 -31.2823,-11.958239 -11.6664,-1.973813 -22.8128,-1.303331 -32.9186,1.086392 l -4.1448,0.9801 1.9928,-0.557293 c -9.5676,2.675641 -18.6071,6.463013 -27.0132,11.31918 -8.6181,4.9786 -16.2467,10.892882 -22.9352,17.462306 l -22.6348,22.232161 21.0153,-20.77109 c -22.9091,22.642873 -44.9561,45.113023 -66.1669,67.346178 -6.4758,-3.91382 -12.861,-7.70942 -19.1483,-11.38958 l 4.2581,2.49239 -5.6457,-3.37044 C 1434.6679,33.850517 1313.3439,-8.1217817 1196.2302,-30.169684 l 0.6108,0.125124 c -50.6003,-9.361873 -95.6594,-12.138534 -133.4562,-11.949686 l -1.4828,0.0074 0.598,-0.01684 c -79.23184,2.231492 -125,3.52051 -125,3.52051 z"
       id="path1"
       inkscape:linked-fill="path4"
       inkscape:path-effect="#path-effect6"
       inkscape:original-d="m 937.5,-0.5 h 125 c 41.97,0.895008 83.64,5.72834 125,14.5 122.09,24.1313 236.09,68.4646 342,133 18.44,12.11 36.61,24.61 54.5,37.5 31.22,-31.891 63.06,-63.058 95.5,-93.5 7.56,-6.556 16.22,-10.8893 26,-13 6.53,-1.1576 12.53,0.1758 18,4 6.29,4.6233 12.29,9.6233 18,15 56.86,55.195 112.7,111.362 167.5,168.5 2.91,3.49 5.58,7.156 8,11 3.29,7.973 3.29,15.973 0,24 -5.19,10.39 -11.86,19.723 -20,28 -27.5,28.833 -55.67,57 -84.5,84.5 115.53,162.064 177.86,342.898 187,542.5 v 89 c -11.24,197.73 -73.57,377.39 -187,539 32.32,33.49 64.82,66.82 97.5,100 3.83,4.5 6.83,9.5 9,15 1.81,8.78 0.14,16.78 -5,24 -5.63,7.29 -11.63,14.29 -18,21 L 1750.5,1889 c -8.96,8.47 -18.29,16.47 -28,24 -7.67,3.88 -15.67,4.55 -24,2 -4.49,-2.08 -8.83,-4.41 -13,-7 -6.52,-5.1 -12.85,-10.43 -19,-16 -27.18,-27.35 -54.51,-54.51 -82,-81.5 -166.77,117.59 -352.43,179.92 -557,187 h -64 c -177.061,-7.19 -341.061,-57.02 -492,-149.5 -18.076,-12.46 -36.576,-24.29 -55.5,-35.5 -4.5,3.83 -9,7.67 -13.5,11.5 -27.788,29.13 -56.788,56.79 -87,83 -8.424,7.05 -18.09,10.38 -29,10 -4.868,-1.07 -9.534,-2.73 -14,-5 -62.804,-59.14 -123.971,-119.97 -183.5,-182.5 -7.0254,-9.55 -9.3587,-20.22 -7,-32 0.91,-5.15 2.91,-9.82 6,-14 27.242,-30.24 55.576,-59.58 85,-88 4.228,-4.56 8.061,-9.39 11.5,-14.5 -13.202,-22.24 -27.036,-44.07 -41.5,-65.5 C 56.5451,1369.29 8.71179,1211.29 -0.5,1041.5 v -88 C 8.18693,789.081 53.3536,635.414 135,492.5 c 16.516,-26.51 33.016,-53.01 49.5,-79.5 -6.447,-8.118 -13.281,-15.951 -20.5,-23.5 -26.759,-25.756 -52.425,-52.423 -77,-80 -8.6066,-14.065 -8.6066,-28.065 0,-42 59.167,-63.167 120.333,-124.333 183.5,-183.5 13.13,-8.2489 26.13,-8.2489 39,0 38.34395,29.28545 70.12834,66.66075 104.5,100.5 C 549.48,89.0898 699.646,29.2565 864.5,5 c 24.438,-2.5232 48.771,-4.35653 73,-5.5 z"
       sodipodi:nodetypes="ccccccccccccccccccccccccccccccccccccccccccccccccccccc"
       transform="matrix(0.77718938,0,0,0.77718938,243.60245,238.58969)" />
  </g>
</svg>
