<?xml version="1.0" encoding="UTF-8" standalone="no"?>
<svg
   version="1.1"
   width="2000px"
   height="1998px"
   style="shape-rendering:geometricPrecision; text-rendering:geometricPrecision; image-rendering:optimizeQuality; fill-rule:evenodd; clip-rule:evenodd"
   id="svg3"
   sodipodi:docname="htcp.svg"
   inkscape:export-filename="htcp.png"
   inkscape:export-xdpi="96.0961"
   inkscape:export-ydpi="96.0961"
   inkscape:version="1.3.2 (091e20e, 2023-11-25, custom)"
   xmlns:inkscape="http://www.inkscape.org/namespaces/inkscape"
   xmlns:sodipodi="http://sodipodi.sourceforge.net/DTD/sodipodi-0.dtd"
   xmlns="http://www.w3.org/2000/svg"
   xmlns:svg="http://www.w3.org/2000/svg">
  <defs
     id="defs3">
    <inkscape:path-effect
       effect="powerstroke"
       id="path-effect6"
       is_visible="true"
       lpeversion="1.3"
       scale_width="4.5"
       interpolator_type="CubicBezierJohan"
       interpolator_beta="0"
       start_linecap_type="peak"
       end_linecap_type="peak"
       offset_points="17.682863,24.293537 | 46.700944,2.7228369"
       linejoin_type="miter"
       miter_limit="4"
       not_jump="false"
       sort_points="true"
       message="&lt;b&gt;Ctrl + click&lt;/b&gt; on existing node and move it" />
    <inkscape:path-effect
       effect="taper_stroke"
       start_shape="center"
       end_shape="center"
       id="path-effect3"
       is_visible="true"
       lpeversion="1"
       stroke_width="28.4"
       subpath="1"
       attach_start="4"
       end_offset="2.2"
       start_smoothing="-1.5"
       end_smoothing="0.5"
       jointype="extrapolated"
       miter_limit="100" />
    <inkscape:path-effect
       effect="fill_between_many"
       method="bsplinespiro"
       autoreverse="false"
       close="false"
       join="false"
       linkedpaths="#path1,0,1"
       id="path-effect4" />
  </defs>
  <sodipodi:namedview
     id="namedview3"
     pagecolor="#ffffff"
     bordercolor="#000000"
     borderopacity="0.25"
     inkscape:showpageshadow="2"
     inkscape:pageopacity="0.0"
     inkscape:pagecheckerboard="0"
     inkscape:deskcolor="#d1d1d1"
     inkscape:zoom="2.3244631"
     inkscape:cx="525.06748"
     inkscape:cy="450.21149"
     inkscape:window-width="1920"
     inkscape:window-height="1017"
     inkscape:window-x="-8"
     inkscape:window-y="-8"
     inkscape:window-maximized="1"
     inkscape:current-layer="g1" />
  <g
     id="g1"
     style="fill:#000000">
    <path
       style="opacity:0.963;fill:#0a110a;fill-opacity:1;fill-rule:nonzero;stroke:#0a110a;stroke-width:10;stroke-linecap:butt;stroke-dasharray:none;stroke-dashoffset:0;stroke-opacity:1"
       fill="#fefffe"
       d="m 937.5,38.255898 c 0,0 46.10595,1.471919 125,3.990588 l -0.9114,-0.0097 c 33.4029,1.844175 72.6304,6.690942 116.215,17.483407 l -0.073,-0.01813 0.7073,0.148012 c 106.8485,22.361557 216.0611,62.83553 323.3194,129.62886 16.2224,12.16539 33.0288,25.2887 50.2557,39.416 l 34.9296,28.64478 36.1584,-34.76161 c 30.5796,-29.39831 62.7491,-59.11046 96.5733,-88.96722 l -1.7105,1.54314 c 0.6792,0.3035 0.8669,1.00896 0.8557,1.77235 -0.011,0.74137 -0.205,1.49926 -0.092,2.16198 l -0.056,-0.32779 -2.227,0.77631 c -4.0561,1.41391 -9.4363,2.20094 -15.5812,1.54908 -6.0781,-0.64478 -11.345,-2.51959 -15.5751,-4.62883 l -0.9026,-0.45007 -0.3825,-0.47123 c 3.292,4.05608 6.2955,8.29594 9.0428,12.72219 l -0.7764,-0.74224 c 54.0265,54.25456 107.1584,109.49493 159.3666,165.72757 -0.2024,1.80249 -0.6295,3.44658 -1.2044,4.96503 l -6.1458,-11.90336 c -2.623,-4.53326 -4.7857,-10.70898 -5.4753,-18.02525 -0.6964,-7.38952 0.276,-14.01599 1.7118,-19.32547 l 1.2078,-4.46671 1.3293,-1.12236 c -2.5208,2.12846 -5.1683,3.24701 -7.8342,4.18235 l 0.079,-0.0279 -1.0026,0.98099 c -28.2089,27.60056 -56.3758,53.81583 -84.359,78.71687 l -57.9875,51.60055 46.7434,66.59217 c 53.2566,75.87119 92.5667,154.24661 119.625,234.74884 27.7271,82.49183 42.8203,167.90806 46.5125,256.02232 -1.3877,30.94773 -2.7097,60.43251 -3.9511,88.11861 l 0.1589,-5.5967 c -6.0115,93.593 -24.3059,178.4333 -51.7749,255.6645 -30.098,84.6227 -71.4991,160.907 -120.7528,229.9863 l -47.6379,66.8131 57.7903,63.3846 c 34.722,38.0832 65.287,71.1707 89.8971,97.6465 -6.1399,-4.5501 -8.8619,-8.5247 -8.8619,-8.5247 0,0 -0.7325,-2.0105 -1.4093,-5.6408 l -11.2465,-60.3245 5.9212,42.4499 c -0.4526,-3.2449 -0.858,-7.6153 -0.7417,-12.7912 0.118,-5.2481 0.7763,-11.4731 2.5335,-18.2313 2.6893,-10.343 7.4484,-19.9299 13.77,-27.6818 l 2.0526,-2.517 0.3809,-0.7642 c -2.2327,4.4787 -5.0582,9.6325 -8.6276,15.1971 l 1.842,-1.8906 c -44.1295,45.5881 -91.9819,95.022 -143.1347,147.8654 l 1.9793,-1.9244 c -5.5828,6.7306 -11.7772,13.5799 -18.6673,20.4032 l 15.3151,-9.6868 c 6.3729,-2.5928 14.3218,-4.6505 23.3259,-4.8097 8.6734,-0.1535 16.3178,1.5018 22.2959,3.9477 l 11.2147,4.5883 0.4675,-0.1184 c -1.6335,0.4138 -3.3329,0.8176 -4.9454,1.14 l 7.8045,5.4523 c -5.406,-2.8469 -10.8724,-5.9726 -16.3793,-9.4229 l 3.2254,3.0793 c -27.7098,-26.3298 -56.0586,-52.9425 -85.0834,-79.8484 l -50.4268,-46.7453 -53.6352,38.2937 c -76.2957,54.4725 -157.1059,96.5219 -242.7668,125.8722 -84.4476,28.9346 -174.2713,45.754 -269.9718,49.6271 l 2.7032,-0.047 c -20.9199,1.0934 -42.09892,2.2004 -63.48615,3.3182 -81.14879,-2.9476 -159.46767,-15.5213 -235.04646,-37.9077 -75.72796,-22.4306 -149.10806,-54.8319 -220.13118,-97.6917 l 3.22259,2.0958 c -19.94892,-12.4046 -40.39299,-24.1629 -61.34127,-35.2683 l -51.35417,-27.2246 -27.51395,33.9584 c -3.80402,4.6951 -7.58735,9.3924 -11.33189,14.0474 l 6.18063,-7.6834 -11.06708,12.3004 c -25.54061,28.387 -52.32736,55.4888 -80.38568,81.3086 l 0.82994,-0.7072 c 1.5606,-0.4738 3.55335,-1.2746 6.381,-1.5988 2.69107,-0.3085 4.96336,0.018 6.06552,0.6586 l 8.94976,5.2029 1.49768,-3.8838 c -0.15957,0.4137 -0.31995,0.8305 -0.50838,1.234 -59.07744,-54.5568 -116.47798,-110.3807 -172.23798,-167.4411 l 4.17538,4.9821 c -0.15778,0.7294 0.30218,2.738 0.15524,4.6662 -0.15215,1.9965 -0.86068,3.5262 -1.44029,3.2217 l -0.50166,-0.2637 0.70383,-0.8092 c -1.5622,1.7962 -3.36816,3.6075 -5.36788,4.2131 l 0.15487,-0.047 -2.88891,3.3939 c 26.05539,-30.6104 52.92223,-59.9875 80.51924,-88.1729 l 1.59795,-1.632 -0.003,0 c 4.92364,-6.9797 9.14011,-14.1271 12.70854,-21.396 l 11.87076,-24.1805 -10.71949,-16.4472 c -14.74062,-22.617 -29.82266,-44.2937 -45.14569,-65.075 C 85.757776,1352.3569 40.531205,1199.6434 30.776955,1039.8032 l 0.04599,1.6968 C 29.675406,1011.3114 28.563219,982.05286 27.491149,953.8497 35.319045,787.02151 81.374641,638.16203 156.38835,504.71932 l -0.48113,0.80609 c 1.43185,-2.49217 45.23496,-78.78627 46.66681,-81.27844 l 8.31894,-14.49848 -9.72273,-9.98737 c -8.46274,-8.69309 -16.65296,-16.21698 -24.20265,-22.66184 l 0.98593,0.84165 -1.51088,-1.36829 C 144.29307,347.45708 118.1158,321.11653 98.18481,300.0908 c -1.297059,-1.93739 -2.21142,-3.66353 -2.869555,-5.16201 -1.129508,-2.57174 -1.623903,-4.74981 -1.845264,-6.47755 -0.439929,-3.43367 0.01145,-5.48774 0.01145,-5.48774 0,0 0.174937,-0.4604 0.584217,-1.33163 0.464264,-0.98827 1.363958,-2.77779 2.99006,-5.09679 C 138.53391,233.67123 201.10789,170.91851 280.69869,98.668018 c 1.98626,-0.824455 3.74533,-1.262773 5.27512,-1.408385 1.63067,-0.155216 2.94605,0.01804 4.12369,0.375945 1.09384,0.332432 2.20367,0.873152 3.38427,1.612006 1.15731,0.724269 2.56899,1.758586 4.18663,3.212166 l -2.52834,-1.89046 c -59.32167,-78.387014 71.56608,94.56656 12.24441,16.17955 l -1.15395,-1.06237 c 35.62844,37.2544 50.93078,53.2547 86.55922,90.5091 l 17.18579,17.97016 21.49446,-14.85903 C 577.18786,108.57255 726.53767,59.123844 868.26344,39.356196 c 42.89672,-1.897236 71.06358,-1.143387 71.06358,-1.143387 z m -1.82702,-77.468707 c 0,0 -29.93706,2.689707 -74.72121,9.847078 l 10.38466,-1.659669 -11.86571,1.845 C 714.77302,-6.681344 563.39217,45.202143 416.50276,145.7057 388.04586,119.69614 338.15033,74.091835 342.76948,78.313527 l -1.175,-1.074008 0.0211,0.01164 c -3.37817,-1.868385 -14.37742,-7.952059 -17.75559,-9.820445 l -2.52834,-1.890464 c -4.88273,-2.70753 -9.94831,-4.768312 -15.16712,-6.067845 -5.38898,-1.341903 -10.77012,-1.828711 -16.06697,-1.481332 -5.49084,0.360101 -10.64695,1.599782 -15.42507,3.469284 -4.994,1.953966 -9.51943,4.572746 -13.59825,7.536318 l -2.19105,1.591964 -0.49589,0.479734 C 179.62009,147.26987 117.968,213.23881 77.139141,258.26357 l -1.214543,1.33936 -0.419877,0.7973 c -3.260767,6.19185 -4.625207,11.16935 -5.2528,13.89478 -0.418077,1.81557 -0.558129,2.78044 -0.558129,2.78044 0,0 -1.632816,3.74602 -2.073683,11.37578 -0.225178,3.89699 -0.02679,8.8222 1.382211,14.54686 1.065574,4.32935 2.811414,9.06179 5.54637,14.12107 l 0.366571,0.6781 1.186643,1.41449 c 19.025051,22.67813 44.223936,51.3179 75.455276,83.21544 l -0.52477,-0.52647 c 2.60006,3.41369 5.2605,7.04922 7.94844,10.90889 -14.77716,21.94612 -46.17576,68.57839 -44.88807,66.66498 l -0.0972,0.14423 -0.38414,0.66219 C 32.968117,619.29274 -17.958679,775.76425 -28.438888,952.02387 l 0.04753,-0.79935 -0.0865,2.27551 c -1.076169,28.31098 -2.192805,57.68657 -3.34509,87.99997 l -0.01559,0.4101 0.06159,1.2869 c 8.144919,170.18 54.27543,334.3753 144.935476,489.9484 l -0.6867,-1.1784 1.79287,2.9277 c 12.88951,21.0484 25.43408,42.873 37.54759,65.5092 l 1.15127,-40.6277 c -3.19506,2.7866 -6.61957,5.3077 -10.29141,7.604 l 1.59509,-1.628 c -30.48379,27.9136 -60.343229,57.1706 -89.480751,87.8271 l 4.48551,-4.7194 -7.219555,8.0664 c -8.065663,9.0118 -14.019458,19.8838 -17.367875,32.2131 l 0.202168,-1.0729 c -2.889757,11.5762 -3.707965,24.0395 -1.478357,36.8941 2.218344,12.7896 7.209182,24.5432 14.193308,34.9938 l 1.15234,1.7243 3.023039,3.2578 c 59.069423,63.6563 120.117903,125.9764 183.196413,186.9141 l 1.6812,1.6242 11.04259,7.3221 c 8.10985,5.3775 16.91672,9.7105 26.33338,12.9325 l 1.79087,0.6128 8.65663,0.7063 c 12.0532,0.9834 24.51927,-0.089 36.93002,-3.7689 12.40273,-3.6778 23.62221,-9.6258 33.5165,-17.1713 l -0.42105,0.3211 1.25099,-1.0283 c 30.8837,-25.3858 60.63626,-52.1748 89.25594,-80.377 5.11598,-2.9314 10.13813,-5.8072 15.14004,-8.65 l -78.86812,6.7338 c 17.1235,11.447 33.66839,23.3632 49.65872,35.7317 l 0.62253,0.4815 2.602,1.6155 c 80.49682,49.9769 164.63603,88.5638 252.27432,115.7742 88.37732,27.4399 179.81148,43.1551 274.02465,47.5367 l 16.84898,0.7836 -13.81367,-0.722 c 21.56186,1.127 42.9126,2.243 64,3.3451 l 0.4036,0.021 2.2996,-0.068 c 110.244,-3.2534 215.4101,-21.5134 315.3781,-54.4904 79.3343,-26.1705 154.9089,-61.4494 226.7631,-105.3596 11.4462,12.0803 22.7701,24.0965 33.9747,36.0492 l 9.6103,10.2519 -6.3848,-7.1725 c 7.0715,7.9439 14.2885,15.4581 21.6207,22.5771 l -5.8967,-5.7253 13.7012,11.1776 c 6.9361,5.6585 14.0051,10.6819 21.0546,15.14 l 1.4297,0.9041 10.2526,3.5658 c 14.4629,5.0302 30.2507,7.5898 46.7908,6.7702 17.1651,-0.8505 32.9444,-5.2281 46.8309,-11.6322 l 2.4859,-1.1465 12.8292,-8.5403 c 13.5046,-8.9899 25.9243,-18.268 37.3327,-27.5968 l -0.056,0.046 2.0355,-1.9703 c 52.8434,-51.1528 102.2773,-99.0052 147.8654,-143.1347 l 3.1142,-3.0146 -1.2722,1.124 c 10.6803,-9.4367 19.7621,-18.5455 27.3724,-26.8029 l -0.3725,0.4042 2.8061,-3.6854 c 11.9959,-15.7551 19.8157,-33.0301 23.9824,-50.5117 5.5132,-23.1317 3.9159,-42.7082 1.5793,-56.1926 l -0.5193,-2.9965 -4.806,-14.8781 c -3.3733,-10.4431 -6.0393,-15.8046 -6.0393,-15.8046 0,0 -6.222,-12.1524 -22.4908,-28.5516 l -14.0968,-14.2098 8.8664,8.4985 c -12.4619,-11.9448 -26.5441,-25.4871 -42.0064,-40.434 37.6746,-64.0326 70.0888,-133.1591 95.435,-207.7437 32.3739,-95.2646 52.9161,-198.5506 58.5825,-310.4253 l 0.2174,-4.2926 -0.059,-1.3041 c -1.2532,-27.9488 -2.5885,-57.73061 -3.9906,-89 l -0.794,-17.70956 0.695,13.38113 c -5.5139,-106.15933 -25.0419,-210.23734 -60.5565,-311.1841 -26.3126,-74.79089 -61.2045,-147.3039 -105.1189,-217.2453 10.4565,-11.28497 20.9085,-22.76487 31.3483,-34.44282 l -0.9231,0.95309 c 13.3115,-15.41564 24.1627,-32.74501 32.1658,-51.81765 l 3.5976,-8.57345 -1.0605,2.98438 c 4.7218,-13.28808 7.3285,-27.93342 6.6468,-43.36597 -0.6756,-15.29483 -4.4977,-29.43414 -10.4102,-41.98469 l -4.9967,-10.60633 -1.1492,-1.29709 c -5.4168,-6.11358 -11.1725,-11.74813 -17.218,-16.91113 l 2.4476,2.0903 -5.9065,-5.95722 C 1906.4029,156.84034 1849.0036,101.0006 1790.7307,46.284244 l -0.8403,-0.789022 0.064,0.04678 c -8.7655,-6.411077 -17.7645,-12.159996 -26.9572,-17.277809 l 2.3182,1.290582 -3.6033,-2.211885 c -9.7268,-5.970896 -20.7477,-10.382146 -32.7801,-12.365177 -12.1981,-2.010346 -23.8383,-1.262331 -34.3762,1.285427 l -4.6104,1.114657 2.3276,-0.666141 c -9.8225,2.811136 -19.1144,6.764977 -27.7572,11.827998 -8.832,5.173846 -16.6426,11.303986 -23.4793,18.106334 l -1.7105,1.543181 c -22.3999,22.2919 -44.0082,44.451614 -64.8489,66.42433 -5.7803,-3.42801 -11.4922,-6.76569 -17.1309,-10.01502 l 2.8355,1.63396 -4.2855,-2.5515 C 1435.7462,32.145596 1314.2113,-9.8467088 1196.5623,-31.85006 l 0.6341,0.129884 c -50.6513,-9.19302 -95.8019,-11.837808 -133.785,-11.516594 l -1.6538,0.01399 0.7424,-0.0237 c -78.89405,2.518669 -125,3.990588 -125,3.990588 z"
       id="path1"
       inkscape:linked-fill="path4"
       inkscape:path-effect="#path-effect6"
       inkscape:original-d="m 937.5,-0.5 h 125 c 41.97,0.895008 83.64,5.72834 125,14.5 122.09,24.1313 236.09,68.4646 342,133 18.44,12.11 36.61,24.61 54.5,37.5 31.22,-31.891 63.06,-63.058 95.5,-93.5 7.56,-6.556 16.22,-10.8893 26,-13 6.53,-1.1576 12.53,0.1758 18,4 6.29,4.6233 12.29,9.6233 18,15 56.86,55.195 112.7,111.362 167.5,168.5 2.91,3.49 5.58,7.156 8,11 3.29,7.973 3.29,15.973 0,24 -5.19,10.39 -11.86,19.723 -20,28 -27.5,28.833 -55.67,57 -84.5,84.5 115.53,162.064 177.86,342.898 187,542.5 v 89 c -11.24,197.73 -73.57,377.39 -187,539 32.32,33.49 64.82,66.82 97.5,100 3.83,4.5 6.83,9.5 9,15 1.81,8.78 0.14,16.78 -5,24 -5.63,7.29 -11.63,14.29 -18,21 L 1750.5,1889 c -8.96,8.47 -18.29,16.47 -28,24 -7.67,3.88 -15.67,4.55 -24,2 -4.49,-2.08 -8.83,-4.41 -13,-7 -6.52,-5.1 -12.85,-10.43 -19,-16 -27.18,-27.35 -54.51,-54.51 -82,-81.5 -166.77,117.59 -352.43,179.92 -557,187 h -64 c -177.061,-7.19 -341.061,-57.02 -492,-149.5 -18.076,-12.46 -36.576,-24.29 -55.5,-35.5 -4.5,3.83 -9,7.67 -13.5,11.5 -27.788,29.13 -56.788,56.79 -87,83 -8.424,7.05 -18.09,10.38 -29,10 -4.868,-1.07 -9.534,-2.73 -14,-5 -62.804,-59.14 -123.971,-119.97 -183.5,-182.5 -7.0254,-9.55 -9.3587,-20.22 -7,-32 0.91,-5.15 2.91,-9.82 6,-14 27.242,-30.24 55.576,-59.58 85,-88 4.228,-4.56 8.061,-9.39 11.5,-14.5 -13.202,-22.24 -27.036,-44.07 -41.5,-65.5 C 56.5451,1369.29 8.71179,1211.29 -0.5,1041.5 v -88 C 8.18693,789.081 53.3536,635.414 135,492.5 c 16.516,-26.51 33.016,-53.01 49.5,-79.5 -6.447,-8.118 -13.281,-15.951 -20.5,-23.5 -26.759,-25.756 -52.425,-52.423 -77,-80 -8.6066,-14.065 -8.6066,-28.065 0,-42 59.167,-63.167 120.333,-124.333 183.5,-183.5 13.13,-8.2489 26.13,-8.2489 39,0 5,4.3333 10,8.6667 15,13 29.845,29.179 59.679,58.346 89.5,87.5 C 549.48,89.0898 699.646,29.2565 864.5,5 c 24.438,-2.5232 48.771,-4.35653 73,-5.5 z"
       sodipodi:nodetypes="cccccccccccccccccccccccccccccccccccccccccccccccccccccc"
       transform="matrix(0.77718938,0,0,0.77718938,243.60245,238.58969)" />
  </g>
</svg>
